# Blender 3.5.1
# www.blender.org
mtllib many_triangles.mtl
o triangle
v 0.000000 0.800000 -0.500000
v -0.800000 -0.800000 -0.500000
v 0.800000 -0.800000 -0.500000
v 0.000000 0.800000 0.500000
v -0.800000 -0.800000 0.500000
v 0.800000 -0.800000 0.500000
vn -0.0000 -0.0000 1.0000
vn -0.0000 -0.0000 -1.0000
s 0
f 1//1 2//1 3//1
f 4//2 6//2 5//2
o triangle.001
v 0.000000 0.800000 0.061906
v -0.800000 -0.800000 0.061906
v 0.800000 -0.800000 0.061906
vn -0.0000 -0.0000 1.0000
s 0
f 7//3 8//3 9//3
o triangle.002
v 0.000000 0.800000 -0.205095
v -0.800000 -0.800000 -0.205095
v 0.800000 -0.800000 -0.205095
v 0.000000 0.800000 0.794905
v -0.800000 -0.800000 0.794905
v 0.800000 -0.800000 0.794905
vn -0.0000 -0.0000 1.0000
vn -0.0000 -0.0000 -1.0000
s 0
f 10//4 11//4 12//4
f 13//5 15//5 14//5
o triangle.003
v 0.000000 0.800000 0.272042
v -0.800000 -0.800000 0.272042
v 0.800000 -0.800000 0.272042
vn -0.0000 -0.0000 1.0000
s 0
f 16//6 17//6 18//6
o triangle.004
v 0.000000 0.800000 0.634731
v -0.800000 -0.800000 0.634731
v 0.800000 -0.800000 0.634731
vn -0.0000 -0.0000 1.0000
s 0
f 19//7 20//7 21//7
o triangle.005
v 0.000000 0.800000 -0.349402
v -0.800000 -0.800000 -0.349402
v 0.800000 -0.800000 -0.349402
vn -0.0000 -0.0000 1.0000
s 0
f 22//8 23//8 24//8
o triangle.006
v 0.000000 0.800000 -0.059008
v -0.800000 -0.800000 -0.059008
v 0.800000 -0.800000 -0.059008
vn -0.0000 -0.0000 1.0000
s 0
f 25//9 26//9 27//9
o triangle.007
v 0.000000 0.800000 0.160398
v -0.800000 -0.800000 0.160398
v 0.800000 -0.800000 0.160398
vn -0.0000 -0.0000 1.0000
s 0
f 28//10 29//10 30//10
o triangle.008
v 0.000000 0.800000 0.379028
v -0.800000 -0.800000 0.379028
v 0.800000 -0.800000 0.379028
vn -0.0000 -0.0000 1.0000
s 0
f 31//11 32//11 33//11
